HIERARCHY
ROOT hip
{
	OFFSET 0.000000 0.000000 0.000000 
	CHANNELS 6 Xposition Yposition Zposition Xrotation Zrotation Yrotation
	JOINT abdomen
	{
		OFFSET 0.000000 3.402643 0.000000 
		CHANNELS 3 Xrotation Zrotation Yrotation
		JOINT chest
		{
			OFFSET 0.000000 8.438565 -0.680529 
			CHANNELS 3 Xrotation Zrotation Yrotation
			JOINT neck
			{
				OFFSET 0.000000 10.207942 -0.272212 
				CHANNELS 3 Xrotation Zrotation Yrotation
				JOINT head
				{
					OFFSET 0.000000 3.130431 0.000000 
					CHANNELS 3 Xrotation Zrotation Yrotation
					End Site
					{
						OFFSET 0.000000 3.130435 0.000000 
					}
				}
			}
			JOINT lCollar
			{
				OFFSET 3.470700 6.669187 -0.816635 
				CHANNELS 3 Yrotation Zrotation Xrotation
				JOINT lShldr
				{
					OFFSET 3.198488 0.000000 0.000000 
					CHANNELS 3 Zrotation Yrotation Xrotation
					JOINT lForeArm
					{
						OFFSET 10.139888 0.000000 0.000000 
						CHANNELS 3 Yrotation Zrotation Xrotation
						JOINT lHand
						{
							OFFSET 8.370511 0.000000 0.000000 
							CHANNELS 3 Zrotation Yrotation Xrotation
							End Site
							{
								OFFSET 4.083176 0.000000 0.000000 
							}
						}
					}
				}
			}
			JOINT rCollar
			{
				OFFSET -3.470700 6.669187 -0.816635 
				CHANNELS 3 Yrotation Zrotation Xrotation
				JOINT rShldr
				{
					OFFSET -3.198488 0.000000 0.000000 
					CHANNELS 3 Zrotation Yrotation Xrotation
					JOINT rForeArm
					{
						OFFSET -10.139888 0.000000 0.000000 
						CHANNELS 3 Yrotation Zrotation Xrotation
						JOINT rHand
						{
							OFFSET -8.370511 0.000000 0.000000 
							CHANNELS 3 Zrotation Yrotation Xrotation
							End Site
							{
								OFFSET -4.083176 0.000000 0.000000 
							}
						}
					}
				}
			}
		}
	}
	JOINT lThigh
	{
		OFFSET 5.308129 -1.633274 1.361059 
		CHANNELS 3 Xrotation Zrotation Yrotation
		JOINT lShin
		{
			OFFSET -2.041588 -20.007561 0.000000 
			CHANNELS 3 Xrotation Zrotation Yrotation
			JOINT lFoot
			{
				OFFSET 0.000000 -19.190928 -1.224953 
				CHANNELS 3 Xrotation Yrotation Zrotation
				End Site
				{
					OFFSET 0.000000 -2.449906 4.627600 
				}
			}
		}
	}
	JOINT rThigh
	{
		OFFSET -5.308129 -1.633274 1.361059 
		CHANNELS 3 Xrotation Zrotation Yrotation
		JOINT rShin
		{
			OFFSET 2.041588 -20.007561 0.000000 
			CHANNELS 3 Xrotation Zrotation Yrotation
			JOINT rFoot
			{
				OFFSET 0.000000 -19.190928 -1.224953 
				CHANNELS 3 Xrotation Yrotation Zrotation
				End Site
				{
					OFFSET 0.000000 -2.449906 4.627600 
				}
			}
		}
	}
}
MOTION
Frames: 13
Frame Time: 0.033333
-11.000529 51.513802 22.023582 11.162109 12.587891 -24.411932 25.398945 -16.197697 -4.143376 -20.595705 6.035156 1.552734 51.063168 8.107644 2.471410 -74.248047 -6.240234 -4.150391 2.000000 -2.000000 0.000000 -89.853516 33.593750 -15.727017 -51.280407 -1.787214 -2.014486 20.913807 57.770908 14.415650 -2.000000 2.000000 0.000000 80.097656 -29.130859 1.005859 55.814392 1.411549 -2.114871 -16.232607 -65.379227 13.607314 -28.076563 -3.798308 4.561356 22.867882 -5.448551 -2.168221 -2.347366 8.697885 1.173645 21.173975 -3.076810 -16.895542 -5.970766 5.395951 -0.342382 30.547689 -23.319016 -13.920648 
-12.056720 51.836803 24.007210 10.957032 11.884767 -24.412048 25.692320 -14.534357 -5.329267 -21.289063 6.572266 1.201172 51.063168 8.107644 2.471410 -72.744141 -6.943358 -0.429688 2.000000 -2.000000 0.000000 -89.882813 31.650391 -14.711675 -51.105461 -1.906477 -2.046645 18.591856 60.468388 14.010289 -2.000000 2.000000 0.000000 78.876953 -31.572266 2.646484 55.473934 1.580692 -2.163703 -12.244054 -65.639473 11.295933 -23.758173 -3.095397 6.762928 20.558956 -5.538857 -1.931485 -4.417857 6.638756 2.171264 10.122134 -5.535603 -16.218399 8.782654 5.198537 0.931354 28.637829 -23.255274 -10.015202 
-12.986740 52.120403 26.013863 10.556642 11.220704 -24.607471 25.985430 -12.856200 -6.503799 -22.158205 7.119140 0.644531 51.063168 8.107644 2.471410 -71.425781 -7.617187 2.410815 2.000000 -2.000000 0.000000 -89.414063 29.697266 -12.934612 -51.105461 -1.906477 -2.046645 15.326015 63.164604 12.292212 -2.000000 2.000000 0.000000 78.515625 -33.847656 3.051202 54.946262 1.619120 -2.151690 -10.841239 -66.002922 10.514010 -19.297209 -2.471025 8.017919 18.268400 -5.586130 -1.725932 -5.522833 4.784710 2.382135 -2.752949 -8.087038 -14.243294 26.543619 4.647015 1.729416 22.930498 -22.304594 -3.949025 
-13.755683 52.325245 28.140867 10.166015 10.185546 -24.912109 26.228260 -11.848248 -7.208817 -22.490234 7.490234 0.292969 51.063168 8.107644 2.471410 -70.390625 -7.929687 3.740235 2.000000 -2.000000 0.000000 -87.861328 27.080078 -10.005320 -51.103081 -1.607749 -1.956231 12.144719 64.807663 10.246251 -2.000000 2.000000 0.000000 80.117180 -35.957031 0.937500 54.406761 1.447703 -2.063874 -11.046616 -66.093292 9.662381 -14.907625 -2.294608 7.660724 15.798869 -5.646594 -1.515395 -6.336608 5.101042 2.318564 -15.640151 -10.181225 -12.453165 43.611687 3.739967 3.428704 16.156052 -21.027718 2.419741 
-14.563735 52.356758 30.387293 9.775391 9.355470 -25.291380 26.083775 -11.027673 -7.583331 -22.314455 7.656250 0.166016 51.063168 8.107644 2.471410 -69.716797 -8.359374 4.277344 2.000000 -2.000000 0.000000 -85.214844 23.994141 -5.673828 -51.103062 -1.617498 -1.955660 10.660377 65.160652 8.909861 -2.000000 2.000000 0.000000 83.173828 -37.705078 -3.970817 53.879124 1.466632 -2.052994 -13.432266 -66.525841 9.450773 -9.867962 -2.050411 6.901626 12.432858 -5.731048 -1.197750 -7.210085 5.296538 2.165838 -25.784616 -11.353261 -11.659153 54.665257 2.820318 3.943228 10.890736 -19.942635 5.880647 
-15.337539 52.222824 32.588238 9.423829 8.671876 -25.633291 25.952250 -10.367863 -8.033344 -22.294922 8.007813 0.029297 51.063168 8.107644 2.471410 -69.052734 -8.613281 4.755859 2.000000 -2.000000 0.000000 -82.353516 20.146482 -1.357422 -51.105690 -1.926544 -2.055253 10.583456 64.896011 7.864666 -2.000000 2.000000 0.000000 85.947266 -38.896484 -8.912382 53.527020 1.475244 -2.032937 -16.217171 -66.620384 9.770165 -5.277453 -2.157331 6.583903 9.965152 -5.377897 -1.315230 -8.507738 5.709527 1.194993 -30.384727 -11.227269 -10.773286 54.848743 2.929424 3.702177 6.651117 -18.549921 6.520193 
-16.098728 51.899826 34.705868 8.867188 7.978516 -26.004503 25.791887 -9.550585 -8.402617 -22.109377 8.164063 -0.087891 51.063168 8.107644 2.471410 -68.369141 -8.876952 4.873046 2.000000 -2.000000 0.000000 -79.628906 15.966799 3.544922 -51.279079 -1.637565 -1.964265 9.520151 64.200813 6.088225 -2.000000 2.000000 0.000000 88.291016 -39.853516 -12.929688 53.011765 1.832464 -2.119725 -18.460094 -66.986313 10.284151 -1.401070 -2.075757 5.165302 8.189117 -5.799734 -0.806402 -10.510292 6.709760 1.375010 -31.512997 -10.429585 -11.889448 46.938412 3.398154 3.695310 2.921534 -16.064507 4.194237 
-16.877277 51.450768 36.789944 8.320313 7.304688 -26.170633 25.661144 -8.881735 -8.849370 -21.748049 8.515625 -0.166016 51.063168 8.107644 2.471410 -67.685547 -9.140624 5.009767 2.000000 -2.000000 0.000000 -77.548828 11.601563 7.375012 -51.456676 -1.807850 -2.032840 9.616109 63.342182 5.067143 -2.000000 2.000000 0.000000 88.769531 -40.917969 -14.892577 52.471478 1.512534 -2.001431 -18.341465 -67.952072 10.020740 2.369630 -1.891399 4.313392 6.994542 -5.815590 -0.701404 -12.601400 7.451834 1.186008 -32.371708 -9.999360 -13.357361 39.201405 3.895899 3.266120 -1.049002 -13.894073 2.997059 
-17.721436 50.891426 38.886501 7.783204 6.777344 -26.131660 25.519812 -8.206216 -9.316834 -21.562500 8.681641 -0.283203 51.063168 8.107644 2.471410 -67.167969 -9.374999 4.960938 2.000000 -2.000000 0.000000 -76.240234 7.812500 9.794921 -51.644375 -2.067010 -2.115511 9.948361 62.739986 5.196385 -2.000000 2.000000 0.000000 88.310547 -41.582031 -16.070934 51.956203 1.869755 -2.088220 -19.036308 -68.974243 11.780684 6.122611 -1.962517 3.656976 5.950485 -5.824894 -0.414003 -14.591506 7.924653 0.839154 -34.119724 -10.692830 -15.267098 34.809853 4.140092 2.631422 -6.571313 -12.122786 2.329542 
-18.587814 50.166637 40.987011 7.402344 6.093750 -26.102480 25.372152 -7.625855 -9.613781 -21.201174 8.837891 -0.380859 51.063168 8.107644 2.471410 -66.660156 -9.619140 5.096025 2.000000 -2.000000 0.000000 -76.064453 3.935547 11.299499 -51.808769 -1.808987 -2.052331 9.304832 62.254860 4.568609 -2.000000 2.000000 0.000000 87.558594 -42.138676 -16.210938 51.427029 1.709222 -2.019327 -18.731262 -69.681900 12.122277 10.276732 -1.765620 2.948127 4.535294 -5.856146 -0.288859 -16.814289 8.220723 1.088616 -35.913391 -11.920627 -17.701969 30.918579 4.354278 2.541604 -12.009332 -10.774329 2.334145 
-19.502327 49.315815 43.132412 6.865234 5.400391 -25.877987 25.207310 -7.130373 -9.767343 -21.015627 9.003906 -0.507812 51.063168 8.107644 2.471410 -66.162109 -9.843749 5.058594 2.000000 -2.000000 0.000000 -76.708984 0.380859 11.015636 -52.172337 -2.029150 -2.137276 9.191975 61.657948 5.445819 -2.000000 2.000000 0.000000 87.324219 -42.441406 -16.500729 51.074921 1.717833 -1.999269 -17.817747 -70.709679 12.336062 14.739458 -1.707384 2.411937 2.241675 -5.825046 -0.064899 -18.543968 9.073833 1.225422 -36.323780 -11.793835 -20.400463 27.063726 4.539779 2.389544 -14.511847 -11.157619 2.655268 
-19.660280 49.693954 42.605320 6.523438 4.882813 -25.624165 24.864605 -6.796074 -9.992920 -20.654297 9.169922 -0.595703 51.063168 8.107644 2.471410 -65.654297 -10.087890 5.019532 2.000000 -2.000000 0.000000 -77.392578 -2.841797 10.927734 -52.688282 -1.771128 -2.074096 9.221265 61.374966 6.274183 -2.000000 2.000000 0.000000 87.304688 -42.421875 -16.982420 50.556782 1.736194 -1.978644 -16.665052 -71.322655 12.147039 6.728206 -0.291476 3.239787 23.099094 -5.454992 -2.141539 -13.660943 8.783428 -0.435416 -35.397655 -9.460787 -23.581829 22.115343 4.745260 2.016945 -11.102894 -14.090697 1.693654 
-20.087976 49.347328 43.827187 5.791016 4.355469 -25.742189 24.701834 -6.303927 -10.138104 -20.468750 9.335938 -0.712890 51.063168 8.107644 2.471410 -65.488281 -10.283201 5.205077 2.000000 -2.000000 0.000000 -77.548828 -4.902344 11.639791 -53.217541 -1.882913 -2.145805 10.040787 60.963169 7.519649 -2.000000 2.000000 0.000000 86.669922 -42.333988 -16.725327 50.372509 1.905340 -2.027479 -15.377295 -72.267128 11.638874 4.830908 0.585885 3.550757 31.186729 -5.171446 -2.638572 -7.913944 7.802401 -1.101266 -33.647923 -5.456017 -26.789427 17.196627 4.921435 1.484777 -5.581527 -19.411497 0.300907 
